<svg width="21" height="22" viewBox="0 0 21 22" fill="none" xmlns="http://www.w3.org/2000/svg">
<g clip-path="url(#clip0_92020_49)">
<path d="M20.8988 0H-0.114136V21.0129H20.8988V0Z" fill="#4E888F"/>
<path d="M2.12889 12.0884C2.09365 12.1164 2.06929 12.1508 2.05583 12.1916C2.04236 12.2323 2.04113 12.2764 2.05213 12.3238C2.06313 12.3712 2.08392 12.4114 2.11449 12.4443C2.14506 12.4773 2.18316 12.4999 2.2288 12.5123C2.27444 12.5246 2.32388 12.5246 2.37713 12.5122C2.43038 12.4999 2.47462 12.4781 2.50983 12.447C2.54505 12.4159 2.56912 12.3789 2.58206 12.3358C2.595 12.2928 2.59597 12.2476 2.58497 12.2002C2.5696 12.1339 2.53713 12.084 2.48757 12.0503C2.43801 12.0166 2.37864 12.0041 2.30944 12.0126L2.37228 12.2834L2.3002 12.3001L2.21543 11.9348L2.28362 11.919C2.34067 11.9112 2.39588 11.9169 2.44925 11.936C2.50261 11.9551 2.54842 11.9859 2.58667 12.0283C2.62493 12.0708 2.65098 12.1219 2.66485 12.1816C2.67947 12.2446 2.67803 12.3055 2.66054 12.3643C2.64304 12.4231 2.6115 12.4738 2.56591 12.5162C2.52031 12.5586 2.46439 12.5874 2.39815 12.6028C2.33191 12.6182 2.26883 12.6169 2.20889 12.599C2.14896 12.5811 2.09819 12.5496 2.05658 12.5045C2.01498 12.4594 1.98687 12.4053 1.97225 12.3424C1.95552 12.2703 1.95858 12.2023 1.98141 12.1385C2.00424 12.0747 2.04519 12.0226 2.10425 11.9822L2.12889 12.0884ZM2.47482 11.6196L2.4389 11.3783L2.51209 11.3674L2.56142 11.6987L1.87201 11.8014L1.85861 11.7113L2.47482 11.6196ZM2.4457 11.1033C2.41901 11.1585 2.37959 11.2034 2.32746 11.238C2.27532 11.2726 2.21533 11.2921 2.14748 11.2967C2.07963 11.3012 2.01757 11.2899 1.96128 11.2626C1.90499 11.2353 1.85993 11.1961 1.82609 11.1449C1.79226 11.0937 1.77317 11.0358 1.76884 10.9713C1.76447 10.9061 1.77562 10.8459 1.80232 10.7907C1.82901 10.7354 1.86827 10.6907 1.92009 10.6565C1.97192 10.6223 2.03209 10.6029 2.1006 10.5983C2.16911 10.5937 2.23134 10.6049 2.28727 10.6318C2.3432 10.6588 2.38809 10.6979 2.42192 10.7491C2.45576 10.8003 2.47487 10.8585 2.47924 10.9236C2.48357 10.9882 2.47239 11.048 2.4457 11.1033ZM2.35769 10.8C2.33246 10.7626 2.29815 10.7342 2.25475 10.7147C2.21134 10.6952 2.16204 10.6874 2.10683 10.6911C2.05096 10.6948 2.00298 10.7092 1.9629 10.7343C1.92282 10.7594 1.89277 10.792 1.87275 10.8321C1.85272 10.8722 1.84436 10.9168 1.84766 10.966C1.85097 11.0153 1.86522 11.0584 1.89043 11.0955C1.91563 11.1325 1.94977 11.1608 1.99284 11.1803C2.03591 11.1998 2.08538 11.2077 2.14125 11.2039C2.19646 11.2002 2.24427 11.1858 2.28468 11.1607C2.32509 11.1356 2.3553 11.1028 2.3753 11.0624C2.39531 11.022 2.40368 10.9775 2.40042 10.9289C2.39716 10.8804 2.38292 10.8374 2.35769 10.8ZM2.13379 9.99584C2.15098 9.97526 2.17206 9.95912 2.19703 9.94741C2.222 9.9357 2.24848 9.9302 2.27647 9.9309C2.31179 9.93179 2.34339 9.94158 2.37126 9.96029C2.39913 9.979 2.4208 10.0057 2.43627 10.0404C2.45173 10.0752 2.45888 10.1159 2.45771 10.1625L2.45117 10.4224L1.75439 10.4049L1.76067 10.155C1.76186 10.1077 1.77071 10.0676 1.78721 10.0346C1.80371 10.0017 1.82549 9.97725 1.85257 9.96126C1.87965 9.94527 1.90985 9.93769 1.94317 9.93853C1.98449 9.93957 2.01837 9.95159 2.0448 9.97459C2.07123 9.9976 2.08998 10.0276 2.10105 10.0645C2.10569 10.0393 2.1166 10.0164 2.13379 9.99584ZM2.05759 10.3215L2.06143 10.1686C2.0625 10.1259 2.05333 10.0927 2.03393 10.0688C2.01452 10.045 1.98715 10.0327 1.95183 10.0318C1.91651 10.0309 1.88856 10.0419 1.86798 10.0647C1.8474 10.0875 1.83656 10.1209 1.83545 10.1649L1.83166 10.3158L2.05759 10.3215ZM2.3532 10.0619C2.33251 10.036 2.30317 10.0226 2.26518 10.0216C2.22653 10.0207 2.1957 10.0332 2.17271 10.0593C2.14971 10.0854 2.13765 10.1208 2.13653 10.1655L2.13256 10.3234L2.37848 10.3296L2.38253 10.1686C2.38367 10.1233 2.37389 10.0877 2.3532 10.0619ZM2.36526 9.35116L2.33182 9.65332L2.47972 9.72603L2.46916 9.82144L1.80809 9.49475L1.81964 9.39038L2.53604 9.21713L2.52548 9.31255L2.36526 9.35116ZM2.28885 9.36886L1.92513 9.45538L2.26113 9.61934L2.28885 9.36886ZM2.50678 8.97438L2.5514 8.7345L2.62415 8.74803L2.56289 9.07738L1.87764 8.94991L1.89428 8.86045L2.50678 8.97438ZM2.69393 7.89186L2.60546 8.1827L2.73746 8.28138L2.70952 8.37323L2.11984 7.93047L2.1504 7.83001L2.88645 7.79154L2.85851 7.88339L2.69393 7.89186ZM2.61556 7.8952L2.24213 7.91331L2.54223 8.13629L2.61556 7.8952ZM2.95673 7.56142C2.92812 7.58914 2.89652 7.60724 2.86194 7.61572C2.82735 7.6242 2.79228 7.62172 2.75673 7.60829L2.79259 7.51816C2.82417 7.52714 2.85472 7.52477 2.88422 7.51104C2.91372 7.4973 2.93685 7.46938 2.95361 7.42726C2.96963 7.387 2.9722 7.35124 2.96131 7.32C2.95043 7.28877 2.92919 7.26686 2.8976 7.25429C2.87282 7.24443 2.84998 7.24323 2.82907 7.2507C2.80816 7.25816 2.78961 7.27051 2.77343 7.28775C2.75724 7.30499 2.7376 7.3291 2.7145 7.36009C2.68635 7.39839 2.66158 7.42818 2.6402 7.44945C2.61882 7.47072 2.59257 7.48574 2.56145 7.49453C2.53033 7.50331 2.49464 7.49969 2.45438 7.48367C2.41907 7.46962 2.39136 7.44819 2.37126 7.41938C2.35115 7.39057 2.34014 7.35695 2.33821 7.31851C2.33628 7.28008 2.3437 7.2398 2.36046 7.19768C2.38462 7.13697 2.41958 7.0933 2.46534 7.06667C2.51109 7.04003 2.56004 7.03422 2.61219 7.04923L2.57522 7.14214C2.54921 7.13538 2.5222 7.1397 2.49418 7.1551C2.46617 7.1705 2.44465 7.19709 2.42961 7.23488C2.41556 7.27019 2.41323 7.30262 2.42263 7.3322C2.43203 7.36177 2.45315 7.38308 2.48598 7.39615C2.50951 7.40551 2.53137 7.4065 2.55153 7.3991C2.5717 7.39169 2.58953 7.37978 2.60504 7.36335C2.62055 7.34692 2.64028 7.32302 2.66424 7.29166C2.69302 7.2536 2.71832 7.22384 2.74013 7.20239C2.76194 7.18093 2.78847 7.16566 2.81971 7.15657C2.85095 7.14747 2.88701 7.15106 2.9279 7.16733C2.95949 7.1799 2.98589 7.20009 3.00711 7.22791C3.02833 7.25573 3.04108 7.2895 3.04536 7.32923C3.04964 7.36896 3.0429 7.41113 3.02516 7.45573C3.00815 7.49847 2.98534 7.5337 2.95673 7.56142ZM3.19984 6.9908C3.16916 7.0162 3.13625 7.03179 3.10111 7.03755C3.06597 7.04331 3.0312 7.03811 2.9968 7.02195L3.03957 6.93489C3.07036 6.9463 3.101 6.94631 3.13148 6.93492C3.16196 6.92353 3.1872 6.89749 3.20719 6.8568C3.2263 6.81791 3.23164 6.78247 3.22322 6.75047C3.2148 6.71848 3.19533 6.69499 3.16481 6.68C3.14088 6.66824 3.1182 6.66526 3.09678 6.67108C3.07535 6.67689 3.0559 6.68776 3.03841 6.70368C3.02093 6.71961 2.99948 6.74212 2.97404 6.77121C2.94298 6.80721 2.91597 6.83497 2.893 6.85451C2.87003 6.87405 2.84269 6.88699 2.81098 6.89332C2.77927 6.89965 2.74397 6.89326 2.70507 6.87415C2.67097 6.85739 2.64502 6.83387 2.62721 6.80358C2.60941 6.7733 2.60105 6.73892 2.60213 6.70045C2.6032 6.66198 2.61373 6.6224 2.63372 6.58172C2.66254 6.52308 2.70079 6.48226 2.74848 6.45927C2.79618 6.43628 2.84543 6.4343 2.89625 6.45333L2.85215 6.54308C2.82675 6.53431 2.79948 6.53651 2.77035 6.54969C2.74123 6.56286 2.7177 6.58769 2.69976 6.62419C2.683 6.6583 2.67816 6.69046 2.68523 6.72067C2.69229 6.75088 2.71168 6.77378 2.74339 6.78936C2.76613 6.80053 2.78784 6.80321 2.80852 6.79741C2.8292 6.7916 2.84791 6.78111 2.86465 6.76593C2.88139 6.75076 2.90293 6.72847 2.92926 6.69907C2.96091 6.66337 2.98845 6.63568 3.01187 6.61599C3.03528 6.59629 3.06292 6.58313 3.09478 6.5765C3.12663 6.56987 3.16231 6.57626 3.2018 6.59566C3.23231 6.61065 3.25706 6.63284 3.27605 6.66223C3.29504 6.69161 3.30512 6.72628 3.30629 6.76622C3.30746 6.80617 3.29746 6.84768 3.2763 6.89076C3.25601 6.93204 3.23053 6.96539 3.19984 6.9908ZM3.48863 6.3932C3.43497 6.42297 3.37688 6.43695 3.31435 6.43515C3.25182 6.43335 3.19152 6.41477 3.13345 6.37938C3.07538 6.344 3.03121 6.29894 3.00094 6.2442C2.97067 6.18945 2.95646 6.13142 2.95831 6.07009C2.96015 6.00876 2.9779 5.95049 3.01155 5.89526C3.04554 5.83947 3.08936 5.79669 3.14302 5.76693C3.19667 5.73716 3.25453 5.72324 3.31661 5.72515C3.37868 5.72705 3.43903 5.74587 3.49767 5.7816C3.55631 5.81733 3.60071 5.86233 3.63087 5.91662C3.66103 5.97091 3.67518 6.02871 3.67334 6.09004C3.67149 6.15137 3.65357 6.20993 3.61958 6.26572C3.58593 6.32095 3.54228 6.36344 3.48863 6.3932ZM3.5915 6.09463C3.59244 6.04953 3.58078 6.00652 3.55653 5.96559C3.53229 5.92467 3.49654 5.88981 3.44928 5.86102C3.40146 5.83188 3.35395 5.81601 3.30674 5.8134C3.25954 5.8108 3.2162 5.82011 3.17673 5.84133C3.13725 5.86256 3.10468 5.89424 3.07901 5.93637C3.05334 5.9785 3.04013 6.02197 3.03937 6.06678C3.0386 6.1116 3.0502 6.15438 3.07417 6.19513C3.09813 6.23588 3.13402 6.27083 3.18184 6.29996C3.2291 6.32875 3.27647 6.34454 3.32395 6.34732C3.37144 6.3501 3.41501 6.34074 3.45466 6.31923C3.49431 6.29771 3.52679 6.26618 3.55211 6.22462C3.57744 6.18306 3.59056 6.13973 3.5915 6.09463ZM3.46648 5.50679C3.44175 5.44951 3.4332 5.39049 3.44082 5.32973C3.44845 5.26898 3.47181 5.21285 3.51091 5.16134C3.55687 5.10081 3.61158 5.05907 3.67505 5.03611C3.73852 5.01314 3.80493 5.01167 3.87428 5.03168L3.80837 5.11849C3.76323 5.10849 3.72065 5.11111 3.68062 5.12634C3.6406 5.14157 3.60527 5.16936 3.57463 5.20972C3.5452 5.24848 3.52782 5.29011 3.5225 5.33461C3.51717 5.37912 3.52444 5.42273 3.54433 5.46544C3.56421 5.50816 3.59645 5.54645 3.64105 5.58031C3.68513 5.61377 3.73041 5.63434 3.77689 5.64201C3.82338 5.64969 3.86735 5.64498 3.90878 5.62789C3.95021 5.6108 3.98565 5.58287 4.01507 5.54411C4.04571 5.50376 4.06312 5.46236 4.0673 5.41992C4.07149 5.37747 4.0627 5.33585 4.04094 5.29506L4.10685 5.20825C4.14422 5.26927 4.16025 5.33333 4.15492 5.40043C4.14959 5.46753 4.12395 5.53135 4.07799 5.59188C4.03889 5.64339 3.99124 5.68107 3.93503 5.70494C3.87882 5.72881 3.81994 5.73664 3.75839 5.72841C3.69683 5.72018 3.63898 5.6955 3.58482 5.65439C3.53066 5.61327 3.49121 5.56407 3.46648 5.50679ZM3.91618 4.68065L4.44132 5.13894L4.38149 5.20751L3.85634 4.74921L3.91618 4.68065ZM4.74309 4.59537L4.5294 4.8116L4.60028 4.96038L4.5328 5.02866L4.21703 4.3623L4.29084 4.28761L4.96018 4.59621L4.8927 4.66449L4.74309 4.59537ZM4.67218 4.56185L4.33325 4.40404L4.49504 4.74109L4.67218 4.56185ZM4.93761 3.69428L4.98589 3.75037L4.84189 3.87432L5.24833 4.34648L5.17936 4.40585L4.77292 3.93369L4.62817 4.05829L4.57989 4.00221L4.93761 3.69428ZM5.15349 3.528L5.57925 4.07985L5.5072 4.13543L5.08144 3.58359L5.15349 3.528ZM5.82006 3.85401C5.75886 3.85836 5.70029 3.84653 5.64435 3.81852C5.58842 3.79052 5.54159 3.74823 5.50386 3.69165C5.46614 3.63507 5.4451 3.57558 5.44075 3.51318C5.4364 3.45078 5.44799 3.39216 5.47554 3.33734C5.50308 3.28251 5.54375 3.23716 5.59756 3.20129C5.65191 3.16504 5.70969 3.14474 5.77089 3.14039C5.8321 3.13604 5.89043 3.14782 5.94591 3.17573C6.00138 3.20365 6.04816 3.24617 6.08626 3.3033C6.12435 3.36043 6.14562 3.41997 6.15007 3.48191C6.15451 3.54385 6.14296 3.60223 6.11542 3.65706C6.08787 3.71188 6.04692 3.75742 5.99256 3.79366C5.93876 3.82954 5.88126 3.84965 5.82006 3.85401ZM6.03928 3.6267C6.05915 3.5862 6.06673 3.54229 6.06201 3.49495C6.05729 3.44762 6.03958 3.40093 6.00888 3.3549C5.97781 3.3083 5.94143 3.27387 5.89973 3.25159C5.85804 3.22932 5.81482 3.21948 5.77007 3.22207C5.72532 3.22466 5.68243 3.23964 5.64138 3.26701C5.60034 3.29438 5.57002 3.32822 5.55042 3.36853C5.53083 3.40884 5.5233 3.45253 5.52783 3.49958C5.53237 3.54664 5.55017 3.59346 5.58124 3.64005C5.61194 3.68609 5.64823 3.72039 5.69011 3.74294C5.73199 3.76549 5.77544 3.77538 5.82047 3.7726C5.86549 3.76983 5.90824 3.75494 5.94873 3.72794C5.98923 3.70094 6.01941 3.66719 6.03928 3.6267ZM6.89604 3.26052L6.81576 3.30337L6.23153 2.98609L6.49287 3.47571L6.41259 3.51856L6.08392 2.90279L6.1642 2.85994L6.74795 3.17633L6.48708 2.68759L6.56736 2.64474L6.89604 3.26052ZM7.45559 2.97397C7.39504 2.96406 7.3408 2.93901 7.29285 2.89883C7.24491 2.85865 7.20912 2.80668 7.1855 2.74291C7.16188 2.67915 7.15516 2.61641 7.16535 2.55469C7.17555 2.49297 7.20038 2.43862 7.23986 2.39165C7.27933 2.34468 7.32939 2.30996 7.39002 2.2875C7.45129 2.2648 7.5122 2.25841 7.57274 2.26832C7.63329 2.27824 7.68733 2.30319 7.73484 2.34317C7.78236 2.38316 7.81805 2.43534 7.8419 2.49973C7.86576 2.56412 7.87268 2.62696 7.86269 2.68825C7.85269 2.74954 7.82795 2.80367 7.78848 2.85065C7.74901 2.89762 7.69864 2.93245 7.63737 2.95515C7.57674 2.97762 7.51614 2.98389 7.45559 2.97397ZM7.72143 2.80351C7.75012 2.7687 7.76765 2.72773 7.774 2.68059C7.78035 2.63344 7.77392 2.58393 7.75469 2.53204C7.73524 2.47953 7.7078 2.43762 7.67238 2.4063C7.63697 2.37499 7.59719 2.35542 7.55306 2.3476C7.50893 2.33978 7.46373 2.34444 7.41747 2.36158C7.37121 2.37871 7.33389 2.40463 7.3055 2.43932C7.27712 2.474 7.25969 2.51476 7.25323 2.56159C7.24676 2.60842 7.25325 2.65809 7.27271 2.71061C7.29193 2.76249 7.31931 2.80425 7.35484 2.83587C7.39037 2.8675 7.43036 2.88717 7.47481 2.89487C7.51925 2.90258 7.56429 2.89798 7.60993 2.88107C7.65557 2.86416 7.69273 2.83831 7.72143 2.80351ZM8.30455 2.01058L8.32425 2.08191L8.03219 2.16259L8.09476 2.3891L8.33188 2.3236L8.35159 2.39493L8.11447 2.46043L8.19807 2.7631L8.11036 2.78733L7.92477 2.11549L8.30455 2.01058ZM9.52269 1.79885L9.62051 2.4839L9.53043 2.49677L9.45748 1.98595L9.30273 2.52928L9.23938 2.53833L8.93761 2.05917L9.0107 2.57098L8.92061 2.58384L8.82279 1.89879L8.91981 1.88494L9.25409 2.41501L9.42667 1.81256L9.52269 1.79885ZM9.86694 1.77148L9.88504 2.2121C9.88759 2.27405 9.90463 2.31939 9.93617 2.34812C9.96771 2.37685 10.0105 2.39011 10.0644 2.38789C10.1177 2.3857 10.1589 2.369 10.188 2.33778C10.217 2.30656 10.2303 2.25997 10.2278 2.19803L10.2097 1.7574L10.3006 1.75366L10.3186 2.19329C10.321 2.25124 10.3114 2.30051 10.2897 2.3411C10.268 2.3817 10.2377 2.41246 10.1989 2.43341C10.16 2.45435 10.116 2.46584 10.0667 2.46786C10.0174 2.46989 9.97254 2.46206 9.93211 2.44437C9.89169 2.42668 9.85917 2.39849 9.83456 2.3598C9.80995 2.32111 9.79646 2.27279 9.79408 2.21484L9.77602 1.77521L9.86694 1.77148ZM10.6115 2.43878C10.5759 2.42092 10.5484 2.39706 10.529 2.36721C10.5096 2.33736 10.5004 2.30344 10.5013 2.26544L10.5982 2.26956C10.6002 2.30234 10.6125 2.33039 10.6352 2.35371C10.6579 2.37702 10.6919 2.38965 10.7372 2.39157C10.7805 2.39341 10.8151 2.38404 10.841 2.36345C10.8669 2.34286 10.8805 2.31559 10.882 2.28162C10.8831 2.25497 10.8767 2.23302 10.8627 2.21574C10.8488 2.19847 10.831 2.18503 10.8094 2.17544C10.7878 2.16585 10.7586 2.15526 10.7217 2.14369C10.6762 2.12975 10.6399 2.11619 10.6128 2.10303C10.5857 2.08987 10.5628 2.07005 10.5443 2.04357C10.5257 2.01709 10.5173 1.9822 10.5192 1.93891C10.5208 1.90094 10.5319 1.86772 10.5524 1.83923C10.573 1.81074 10.6011 1.78925 10.6368 1.77475C10.6724 1.76025 10.7129 1.75396 10.7582 1.75589C10.8234 1.75866 10.8762 1.77725 10.9164 1.81166C10.9567 1.84606 10.9783 1.89035 10.9814 1.94453L10.8815 1.94029C10.8793 1.9135 10.8663 1.88943 10.8425 1.86807C10.8187 1.84671 10.7865 1.83516 10.7459 1.83344C10.7079 1.83182 10.6765 1.84033 10.6517 1.85896C10.6269 1.87759 10.6137 1.90456 10.6122 1.93986C10.6112 1.96517 10.6174 1.98612 10.6311 2.00272C10.6447 2.01931 10.6619 2.03222 10.6825 2.04143C10.7031 2.05065 10.7322 2.06139 10.7697 2.07366C10.8151 2.08827 10.8515 2.10233 10.879 2.11584C10.9064 2.12935 10.9296 2.14935 10.9485 2.17585C10.9674 2.20234 10.9759 2.23757 10.9741 2.28153C10.9726 2.31549 10.9623 2.34708 10.943 2.37629C10.9237 2.4055 10.8961 2.42868 10.86 2.44583C10.8239 2.46298 10.7819 2.47054 10.7339 2.4685C10.6879 2.46655 10.6472 2.45664 10.6115 2.43878ZM11.2299 2.42388L11.4725 2.45083L11.4643 2.52437L11.1313 2.48737L11.2083 1.79464L11.2988 1.80469L11.2299 2.42388ZM11.7908 1.87097L11.6816 2.55936L11.5917 2.54509L11.701 1.85671L11.7908 1.87097ZM12.7141 2.07271L12.5556 2.7463L12.467 2.72545L12.5852 2.22318L12.2431 2.67276L12.1808 2.6581L12.0744 2.10192L11.9559 2.60517L11.8674 2.58432L12.0259 1.91073L12.1213 1.93318L12.2394 2.54862L12.6197 2.05049L12.7141 2.07271ZM13.3211 2.34705L13.2391 2.56517L13.4769 2.6545L13.4505 2.72471L13.2127 2.63537L13.1283 2.86004L13.3942 2.95993L13.3678 3.03014L13.0167 2.89824L13.2622 2.24484L13.6133 2.37673L13.5869 2.44694L13.3211 2.34705ZM13.8582 3.24914L13.8274 2.92076L13.7276 2.8745L13.6077 3.13307L13.5252 3.0948L13.8183 2.46243L14.0224 2.55706C14.0702 2.5792 14.1068 2.60608 14.1322 2.63769C14.1576 2.66931 14.172 2.70281 14.1754 2.7382C14.1789 2.77359 14.1723 2.80913 14.1558 2.84482C14.1356 2.88837 14.1052 2.92096 14.0647 2.94259C14.0242 2.96422 13.9763 2.96884 13.9211 2.95646L13.957 3.29498L13.8582 3.24914ZM13.7583 2.80827L13.8799 2.86462C13.9246 2.88537 13.9633 2.88989 13.9959 2.87819C14.0285 2.86648 14.0534 2.84218 14.0705 2.80529C14.0879 2.76779 14.0903 2.73364 14.0778 2.70284C14.0652 2.67204 14.0363 2.64613 13.9909 2.6251L13.8693 2.56875L13.7583 2.80827ZM14.5106 2.80209L14.1814 3.41646L14.1012 3.37349L14.4304 2.75911L14.5106 2.80209ZM15.0741 3.13242L15.0357 3.19569L14.8733 3.09711L14.5501 3.62971L14.4723 3.58249L14.7955 3.0499L14.6322 2.95081L14.6706 2.88754L15.0741 3.13242ZM15.131 4.02182L15.1621 3.69347L15.0727 3.62939L14.9066 3.86103L14.8327 3.80802L15.2387 3.2415L15.4216 3.37258C15.4644 3.40326 15.4953 3.4365 15.5144 3.47229C15.5334 3.50809 15.5413 3.54369 15.5381 3.5791C15.5349 3.61452 15.5218 3.64821 15.4989 3.68018C15.4709 3.71919 15.435 3.74554 15.3912 3.75923C15.3473 3.77291 15.2994 3.76851 15.2474 3.74603L15.2196 4.08531L15.131 4.02182ZM15.1152 3.57005L15.2241 3.64811C15.2642 3.67685 15.3014 3.68852 15.3356 3.68311C15.3698 3.6777 15.3988 3.65847 15.4225 3.62542C15.4465 3.59182 15.4553 3.55872 15.4487 3.52613C15.4422 3.49353 15.4185 3.46266 15.3779 3.43354L15.269 3.35547L15.1152 3.57005ZM15.8172 3.76837L15.6677 3.9471L15.8626 4.11005L15.8145 4.16759L15.6196 4.00464L15.4657 4.18874L15.6835 4.37093L15.6354 4.42847L15.3477 4.18789L15.7955 3.65246L16.0832 3.89304L16.0351 3.95057L15.8172 3.76837ZM16.166 4.71849L15.9489 4.50571L15.8004 4.57722L15.7318 4.51003L16.3969 4.19146L16.4718 4.26495L16.1661 4.93558L16.0975 4.86839L16.166 4.71849ZM16.1992 4.64744L16.3556 4.30785L16.0192 4.47106L16.1992 4.64744ZM16.6171 5.4581L16.5582 5.38878L16.7439 4.75042L16.3211 5.10997L16.2621 5.04065L16.7939 4.58846L16.8528 4.65778L16.6679 5.29549L17.0899 4.93659L17.1489 5.00592L16.6171 5.4581ZM17.3634 5.57037C17.4257 5.56686 17.484 5.57914 17.5384 5.6072C17.5929 5.63527 17.6375 5.67652 17.6724 5.73096C17.7135 5.79494 17.7338 5.86067 17.7335 5.92817C17.7333 5.99566 17.7118 6.05852 17.6691 6.11675L17.6103 6.02499C17.6352 5.98605 17.6474 5.94517 17.6469 5.90235C17.6464 5.85953 17.6324 5.81679 17.6051 5.77414C17.5788 5.73317 17.5457 5.70253 17.5058 5.68221C17.4658 5.66189 17.4224 5.65372 17.3754 5.65769C17.3285 5.66166 17.2814 5.67875 17.2343 5.70898C17.1877 5.73885 17.1528 5.77428 17.1296 5.81529C17.1064 5.8563 17.0957 5.8992 17.0975 5.94398C17.0993 5.98877 17.1133 6.03165 17.1396 6.07262C17.1669 6.11527 17.1998 6.14586 17.2382 6.16439C17.2766 6.18293 17.3187 6.18899 17.3645 6.1826L17.4233 6.27436C17.3532 6.28846 17.2875 6.28146 17.2263 6.25336C17.1652 6.22527 17.1141 6.17923 17.0731 6.11526C17.0381 6.06082 17.0192 6.0031 17.0161 5.94211C17.013 5.88113 17.0259 5.82315 17.0548 5.76819C17.0838 5.71323 17.1268 5.66739 17.1841 5.63069C17.2413 5.59399 17.3011 5.57388 17.3634 5.57037ZM17.432 6.63632C17.4351 6.57504 17.4538 6.51831 17.4883 6.46614C17.5228 6.41396 17.5704 6.37254 17.6311 6.34187C17.6918 6.31119 17.7534 6.29743 17.8159 6.30059C17.8783 6.30375 17.9351 6.32229 17.9863 6.35621C18.0374 6.39012 18.0776 6.43594 18.1067 6.49365C18.1362 6.55196 18.1494 6.61176 18.1464 6.67304C18.1434 6.73432 18.1247 6.79082 18.0903 6.84255C18.056 6.89428 18.0082 6.93563 17.9469 6.9666C17.8856 6.99758 17.8239 7.01156 17.7619 7.00855C17.6999 7.00554 17.6433 6.98707 17.5922 6.95316C17.541 6.91924 17.5007 6.87313 17.4713 6.81482C17.4421 6.7571 17.429 6.69761 17.432 6.63632ZM17.6314 6.88121C17.6693 6.90579 17.712 6.91858 17.7595 6.91956C17.8071 6.92055 17.8555 6.90856 17.9049 6.8836C17.9549 6.85834 17.9935 6.82635 18.0206 6.78762C18.0477 6.7489 18.0626 6.70717 18.0654 6.66243C18.0682 6.6177 18.0585 6.57332 18.0362 6.52929C18.014 6.48526 17.984 6.4511 17.9463 6.42682C17.9087 6.40253 17.8662 6.38982 17.8189 6.38868C17.7717 6.38754 17.7231 6.39961 17.6731 6.42487C17.6237 6.44983 17.5853 6.48174 17.5579 6.52062C17.5305 6.5595 17.5154 6.60145 17.5128 6.64649C17.5102 6.69152 17.5198 6.73575 17.5418 6.77918C17.5637 6.82262 17.5936 6.85663 17.6314 6.88121ZM18.5938 7.6814L17.9462 7.9253L17.9141 7.84014L18.397 7.65827L17.833 7.6249L17.8105 7.56501L18.2129 7.16661L17.7291 7.34883L17.697 7.26367L18.3446 7.01977L18.3791 7.11148L17.934 7.55266L18.5596 7.59062L18.5938 7.6814ZM18.8463 8.61917L18.1754 8.78884L18.1531 8.70061L18.6533 8.5741L18.0967 8.47763L18.081 8.41559L18.5256 8.06488L18.0244 8.19164L18.002 8.10342L18.6729 7.93375L18.6969 8.02876L18.2052 8.41719L18.8225 8.52513L18.8463 8.61917ZM18.9099 8.9586L18.4736 9.02316C18.4123 9.03224 18.369 9.05398 18.3438 9.08838C18.3185 9.12277 18.3099 9.16668 18.3178 9.2201C18.3256 9.27286 18.3465 9.31205 18.3807 9.33766C18.4148 9.36328 18.4625 9.37154 18.5238 9.36247L18.9601 9.29791L18.9734 9.38793L18.5381 9.45234C18.4808 9.46083 18.4307 9.45644 18.3881 9.43917C18.3454 9.42189 18.3116 9.39505 18.2867 9.35864C18.2618 9.32223 18.2457 9.27963 18.2385 9.23082C18.2313 9.18202 18.2343 9.13659 18.2476 9.09452C18.2609 9.05245 18.2855 9.01713 18.3214 8.98857C18.3573 8.96001 18.4039 8.94149 18.4613 8.933L18.8965 8.86858L18.9099 8.9586ZM18.3339 10.2204L18.3288 10.1295L18.8624 9.73299L18.3082 9.76411L18.3031 9.67325L19 9.63412L19.0051 9.72497L18.4725 10.1215L19.0257 10.0904L19.0308 10.1813L18.3339 10.2204ZM19.0274 10.504L18.3304 10.4986L18.3311 10.4076L19.0281 10.413L19.0274 10.504ZM18.9974 11.1565L18.9235 11.152L18.9351 10.9623L18.3133 10.9242L18.3189 10.8333L18.9407 10.8715L18.9524 10.6809L19.0263 10.6854L18.9974 11.1565ZM18.9659 11.4272L18.2735 11.3473L18.2839 11.2569L18.9763 11.3368L18.9659 11.4272ZM18.85 11.7261L18.6202 11.6874L18.578 11.9379L18.5041 11.9254L18.5462 11.6749L18.3096 11.6351L18.2624 11.9152L18.1885 11.9027L18.2507 11.5329L18.939 11.6488L18.8768 12.0186L18.8028 12.0061L18.85 11.7261ZM18.1487 12.1684C18.1732 12.137 18.202 12.1147 18.2351 12.1015C18.2681 12.0883 18.3032 12.0859 18.3403 12.0943L18.3172 12.1885C18.2847 12.184 18.2548 12.1906 18.2275 12.2082C18.2001 12.2259 18.1811 12.2568 18.1703 12.3008C18.16 12.3429 18.1624 12.3787 18.1775 12.4081C18.1926 12.4375 18.2167 12.4563 18.2497 12.4644C18.2756 12.4707 18.2984 12.4687 18.3181 12.4585C18.3377 12.4482 18.3544 12.4334 18.368 12.4141C18.3817 12.3948 18.3978 12.3682 18.4164 12.3343C18.439 12.2925 18.4594 12.2595 18.4776 12.2355C18.4959 12.2115 18.5198 12.193 18.5494 12.18C18.579 12.167 18.6149 12.1656 18.6569 12.1759C18.6939 12.185 18.7243 12.2024 18.7482 12.2281C18.7721 12.2539 18.7876 12.2856 18.7948 12.3234C18.8021 12.3612 18.8003 12.4022 18.7895 12.4462C18.774 12.5097 18.7454 12.5577 18.7037 12.5904C18.6621 12.6232 18.6144 12.6357 18.5607 12.628L18.5845 12.5309C18.6112 12.534 18.6373 12.526 18.6629 12.5069C18.6886 12.4877 18.7062 12.4584 18.7159 12.4189C18.7249 12.382 18.7227 12.3496 18.7093 12.3216C18.6959 12.2936 18.6721 12.2754 18.6378 12.267C18.6131 12.261 18.5914 12.263 18.5724 12.2731C18.5535 12.2832 18.5375 12.2975 18.5244 12.3159C18.5113 12.3343 18.495 12.3607 18.4756 12.3951C18.4524 12.4368 18.4315 12.4698 18.4128 12.494C18.3942 12.5183 18.37 12.5371 18.3403 12.5504C18.3107 12.5637 18.2744 12.5652 18.2317 12.5547C18.1987 12.5466 18.1697 12.5303 18.1449 12.5056C18.12 12.481 18.1027 12.4493 18.093 12.4106C18.0833 12.3718 18.0841 12.3291 18.0955 12.2825C18.1065 12.2378 18.1242 12.1998 18.1487 12.1684Z" fill="white"/>
<path d="M3.75965 14.9155C3.77332 14.9359 3.80107 14.9414 3.82146 14.9277C3.84185 14.9141 3.84808 14.8858 3.83442 14.8654C3.82024 14.8443 3.79174 14.8393 3.77135 14.853C3.75096 14.8666 3.74548 14.8944 3.75965 14.9155ZM3.69032 14.8121C3.70398 14.8325 3.73173 14.8379 3.75212 14.8243C3.77251 14.8106 3.77874 14.7823 3.76508 14.762C3.75091 14.7408 3.7224 14.7358 3.70201 14.7495C3.68162 14.7632 3.67614 14.7909 3.69032 14.8121ZM3.36642 15.3673C3.3811 15.3892 3.40758 15.3944 3.4242 15.3833C3.44006 15.3727 3.44757 15.3545 3.4334 15.3334C3.39696 15.279 3.38754 15.2404 3.45599 15.1891L3.6971 15.01L3.65611 14.9488L3.60023 14.9895C3.5115 14.8947 3.38861 14.8534 3.30781 14.9076C3.22549 14.9627 3.25707 15.0915 3.35462 15.1815C3.30837 15.2399 3.32239 15.3016 3.36642 15.3673ZM3.35761 14.9606C3.39461 14.9358 3.47156 14.9543 3.53958 15.0346L3.40594 15.134C3.3574 15.0844 3.31003 14.9925 3.35761 14.9606ZM3.39907 15.4101C3.49059 15.5335 3.56501 15.5575 3.66285 15.485C3.70666 15.4525 3.76433 15.3791 3.79825 15.3257L3.73248 15.2828C3.69269 15.3451 3.64652 15.411 3.61001 15.4381C3.55087 15.482 3.52772 15.4584 3.46436 15.373M3.36125 15.6475C3.37587 15.6672 3.40385 15.6714 3.42357 15.6568C3.44328 15.6421 3.44816 15.6136 3.43354 15.5939C3.41838 15.5735 3.38967 15.5699 3.36995 15.5845C3.35024 15.5991 3.34609 15.6271 3.36125 15.6475ZM3.28706 15.5475C3.30168 15.5672 3.32966 15.5714 3.34937 15.5567C3.36909 15.5421 3.37397 15.5136 3.35935 15.4939C3.34418 15.4734 3.31547 15.4698 3.29576 15.4844C3.27605 15.4991 3.2719 15.527 3.28706 15.5475ZM3.43298 15.8014C3.50786 15.8578 3.66665 15.9152 3.78864 15.8492C3.78229 15.8789 3.78845 15.9125 3.81763 15.9485C3.83422 15.969 3.86107 15.9718 3.87661 15.9592C3.89145 15.9472 3.8973 15.9284 3.88128 15.9087C3.85153 15.8719 3.84682 15.843 3.87749 15.7971C3.90353 15.7585 3.9367 15.7012 3.96569 15.6344L3.89778 15.604C3.87542 15.6631 3.84542 15.7271 3.79949 15.7643C3.7345 15.817 3.627 15.8373 3.47009 15.7375M4.27909 15.9338C4.29542 15.9521 4.32365 15.9537 4.34198 15.9374C4.36032 15.9211 4.36263 15.8922 4.34631 15.8739C4.32938 15.8549 4.30047 15.8539 4.28214 15.8702C4.2638 15.8865 4.26217 15.9147 4.27909 15.9338ZM4.19627 15.8407C4.21259 15.8591 4.24083 15.8607 4.25916 15.8444C4.27749 15.8281 4.27981 15.7992 4.26349 15.7809C4.24656 15.7619 4.21765 15.7608 4.19931 15.7772C4.18098 15.7935 4.17934 15.8217 4.19627 15.8407ZM3.85221 15.9888C3.91448 16.0588 3.95217 16.0861 4.01309 16.0793C3.99228 16.1161 3.99911 16.1538 4.0777 16.2421C4.09523 16.2618 4.12218 16.2633 4.13712 16.25C4.15138 16.2374 4.15635 16.2183 4.13942 16.1993C4.04572 16.0941 4.06911 16.0793 4.09627 16.0552C4.11799 16.0358 4.16184 16.0126 4.19112 15.9963L4.15415 15.9342C4.01342 16.0182 3.99433 16.0364 3.91393 15.9461M4.11181 16.2778C4.21862 16.3883 4.29553 16.4024 4.38309 16.3177C4.4223 16.2798 4.46993 16.1996 4.49661 16.1422L4.42581 16.1082C4.39447 16.1752 4.35728 16.2466 4.32461 16.2782C4.27167 16.3294 4.24566 16.309 4.17171 16.2325M4.10522 16.5182C4.12229 16.5358 4.15057 16.5363 4.16821 16.5192C4.18585 16.5022 4.18698 16.4732 4.16992 16.4556C4.15222 16.4373 4.12329 16.4375 4.10564 16.4545C4.088 16.4716 4.08753 16.4999 4.10522 16.5182ZM4.01864 16.4286C4.0357 16.4463 4.06398 16.4468 4.08163 16.4297C4.09927 16.4126 4.10039 16.3837 4.08333 16.3661C4.06563 16.3478 4.0367 16.3479 4.01906 16.365C4.00141 16.3821 4.00094 16.4103 4.01864 16.4286ZM4.19678 16.6589C4.28216 16.7064 4.47566 16.7576 4.60798 16.6187C4.64435 16.5806 4.68069 16.5147 4.70234 16.4261L4.63109 16.4047C4.60518 16.5031 4.58934 16.5395 4.55422 16.5763C4.49904 16.6342 4.39844 16.6753 4.22535 16.5907M5.21028 16.6371C5.17379 16.6801 5.1346 16.7136 5.08955 16.7386C5.07844 16.6576 5.05658 16.5555 5.02592 16.4245L4.95451 16.4426C4.98482 16.5613 5.01098 16.6766 5.02351 16.7672C4.95065 16.7911 4.86283 16.7977 4.74988 16.7888L4.70221 16.8449L4.86158 16.9803C4.95858 17.0627 5.02607 17.0282 5.0602 16.988C5.0914 16.9512 5.10319 16.898 5.09779 16.8159C5.16489 16.7847 5.22178 16.7388 5.2718 16.6799C5.29593 16.6514 5.34218 16.5858 5.36215 16.5538L5.29668 16.5101C5.27633 16.5453 5.23617 16.6067 5.21028 16.6371ZM4.83292 16.8581C4.90632 16.8644 4.97156 16.8578 5.03085 16.8414C5.03274 16.8883 5.02776 16.9222 5.01364 16.9389C4.99481 16.961 4.96735 16.9723 4.92023 16.9323M4.51142 17.0443C4.55718 17.0676 4.62545 17.0982 4.67 17.1146L4.68893 17.0698C4.67105 17.0642 4.651 17.0555 4.62956 17.0456C4.61635 17.0261 4.60761 16.99 4.62762 16.9664C4.64116 16.9505 4.66128 16.9521 4.68276 16.9703C4.69246 16.9786 4.69901 16.9877 4.70625 16.9974L4.74122 16.9675C4.73377 16.9552 4.72306 16.9425 4.71336 16.9343C4.67595 16.9025 4.62375 16.8952 4.58844 16.9367C4.56902 16.9596 4.56591 16.9928 4.57393 17.0198C4.56246 17.0137 4.55099 17.0075 4.53489 16.9998M5.13726 17.2021L5.19568 17.2469L5.57636 16.7209L5.51794 16.676M6.01392 17.1216C6.03439 17.1351 6.06211 17.1295 6.07566 17.109C6.08921 17.0886 6.08408 17.0601 6.06362 17.0465C6.04239 17.0325 6.01417 17.0389 6.00062 17.0593C5.98707 17.0798 5.9927 17.1075 6.01392 17.1216ZM5.91008 17.0528C5.93055 17.0664 5.95827 17.0607 5.97182 17.0403C5.98537 17.0198 5.98024 16.9913 5.95977 16.9778C5.93855 16.9637 5.91033 16.9701 5.89678 16.9906C5.88323 17.011 5.88886 17.0388 5.91008 17.0528ZM5.82506 17.69C5.84705 17.7045 5.8735 17.6992 5.88455 17.6825C5.89509 17.6666 5.89503 17.6469 5.8738 17.6328C5.81923 17.5967 5.79568 17.5648 5.83907 17.491L5.99258 17.2328L5.93119 17.1922L5.89532 17.2513C5.7769 17.198 5.64758 17.2072 5.59387 17.2883C5.53916 17.3709 5.61791 17.4776 5.7426 17.5231C5.7224 17.5947 5.75912 17.6463 5.82506 17.69ZM5.66028 17.3181C5.68487 17.2809 5.763 17.2683 5.85669 17.3162L5.77166 17.4594C5.70778 17.4324 5.62866 17.3658 5.66028 17.3181ZM5.87928 17.725C5.93053 17.7544 5.96535 17.765 6.04799 17.716C6.05414 17.7929 6.09369 17.8628 6.14572 17.8927C6.18041 17.9126 6.221 17.9149 6.26108 17.8908C6.26618 17.9294 6.29396 17.9631 6.33496 17.9867C6.35782 17.9998 6.38388 17.9927 6.39384 17.9754C6.40335 17.9588 6.40204 17.9392 6.37996 17.9266C6.33818 17.9026 6.32256 17.8768 6.33733 17.7689C6.35302 17.6522 6.33869 17.6041 6.28666 17.5742C6.2496 17.5529 6.18117 17.5461 6.07323 17.6173C5.99238 17.6705 5.96765 17.6898 5.92428 17.6649M6.11235 17.6733C6.18349 17.6261 6.22161 17.6218 6.24571 17.6346C6.28243 17.6546 6.27226 17.7179 6.26402 17.7761C6.25578 17.8343 6.21786 17.8492 6.1816 17.8284C6.14691 17.8085 6.11342 17.7536 6.11235 17.6733ZM6.38701 18.0109C6.4657 18.0507 6.51813 18.0538 6.55728 18.0288C6.5567 18.0662 6.57522 18.1061 6.63038 18.134C6.65391 18.1459 6.67956 18.1375 6.68859 18.1197C6.6972 18.1026 6.69485 18.0831 6.67214 18.0716C6.62265 18.0466 6.5956 18.0054 6.63542 17.9206L6.83045 17.5027L6.76312 17.4687L6.56808 17.8886C6.52989 17.9722 6.52043 17.9949 6.42795 17.9481M6.68833 18.1703C6.75114 18.1968 6.79619 18.207 6.84553 18.1696C6.8438 18.2251 6.88597 18.2538 6.92114 18.2687C6.98898 18.2973 7.02517 18.3027 7.0693 18.273C7.07023 18.3129 7.09533 18.3422 7.15228 18.3663C7.20672 18.3893 7.26166 18.3947 7.30903 18.3456C7.30977 18.3953 7.33736 18.4444 7.40017 18.471C7.42446 18.4812 7.44947 18.4711 7.45725 18.4526C7.46468 18.4351 7.461 18.4157 7.43755 18.4058C7.34626 18.3673 7.35161 18.3172 7.41426 18.1315L7.35135 18.1099C7.33037 18.1829 7.31471 18.2247 7.29844 18.2632C7.27793 18.3118 7.24493 18.3245 7.18882 18.3008C7.12266 18.2728 7.1211 18.2485 7.13136 18.2242C7.14338 18.1957 7.17749 18.143 7.19524 18.115L7.13655 18.0764C7.0421 18.2299 7.02635 18.2322 6.96019 18.2042C6.90408 18.1805 6.89357 18.1563 6.90524 18.1287C6.91868 18.0969 6.9488 18.0583 6.96753 18.0326L6.91214 17.9885C6.80941 18.1336 6.79689 18.1353 6.7257 18.1052M7.47566 18.4936C7.53184 18.5119 7.56809 18.5151 7.63895 18.4502C7.66072 18.5243 7.71373 18.5846 7.77077 18.6032C7.8088 18.6156 7.84901 18.6095 7.8833 18.5777C7.89619 18.6144 7.9303 18.6418 7.97524 18.6564C8.00031 18.6646 8.02438 18.6524 8.03057 18.6333C8.03649 18.6152 8.03119 18.5963 8.00699 18.5884C7.96118 18.5734 7.94062 18.5514 7.933 18.4428C7.92446 18.3253 7.90059 18.2812 7.84354 18.2626C7.80292 18.2493 7.73455 18.2567 7.64345 18.3484C7.5752 18.417 7.55494 18.441 7.50741 18.4255M7.69321 18.3952C7.75318 18.3345 7.78961 18.3224 7.81582 18.33C7.85586 18.3421 7.85887 18.4062 7.86271 18.4648C7.86655 18.5235 7.83249 18.5458 7.79273 18.5329C7.7547 18.5205 7.71069 18.4736 7.69321 18.3952ZM8.02976 18.6689C8.18771 18.7116 8.22794 18.65 8.25641 18.524L8.35763 18.0804L8.28655 18.0612L8.18231 18.5124C8.16183 18.6019 8.15629 18.6259 8.05714 18.599M8.38179 18.7559L8.45344 18.7729L8.58569 18.1372L8.51404 18.1201M9.34211 18.5626C9.36643 18.5659 9.38893 18.5487 9.39223 18.5244C9.39552 18.5001 9.3785 18.4767 9.35418 18.4734C9.32896 18.47 9.30633 18.488 9.30304 18.5123C9.29975 18.5367 9.31688 18.5592 9.34211 18.5626ZM9.21869 18.5459C9.24301 18.5492 9.26551 18.532 9.26881 18.5077C9.2721 18.4834 9.25509 18.46 9.23076 18.4567C9.20554 18.4533 9.18291 18.4713 9.17962 18.4956C9.17633 18.5199 9.19346 18.5424 9.21869 18.5459ZM9.14019 18.9224C9.52396 18.9743 9.64569 18.9358 9.66496 18.7934C9.67228 18.7394 9.65784 18.6631 9.64324 18.6015L9.57058 18.6164C9.58744 18.6884 9.59794 18.7532 9.59184 18.7982C9.58062 18.8811 9.45379 18.8896 9.17361 18.8517C8.95921 18.8226 8.90463 18.7786 8.91731 18.6849C8.92146 18.6542 8.93939 18.6099 8.95026 18.5838L8.88501 18.5576C8.8663 18.6009 8.84661 18.6514 8.84064 18.6956C8.82283 18.8271 8.92578 18.8933 9.14019 18.9224ZM10.0233 18.9918C10.0496 18.9934 10.0698 18.9754 10.071 18.9555C10.0721 18.9364 10.0622 18.9194 10.0367 18.9179C9.93238 18.9119 9.92639 18.8897 9.92795 18.8005L9.93708 18.3321L9.86266 18.3277L9.85183 18.8252C9.84911 18.9343 9.87721 18.9833 10.0233 18.9918ZM10.0724 18.9945C10.166 18.9961 10.2116 18.9869 10.2479 18.9375C10.2609 18.9778 10.2932 18.9983 10.4114 19.0004C10.4378 19.0009 10.4572 18.9821 10.4575 18.9621C10.4579 18.943 10.4473 18.9265 10.4218 18.926C10.2809 18.9236 10.2859 18.8964 10.2866 18.86C10.2871 18.8309 10.2998 18.783 10.3076 18.7504L10.2369 18.7355C10.2032 18.8958 10.2037 18.9222 10.0828 18.9201M10.2984 19.1703C10.323 19.1707 10.3433 19.151 10.3437 19.1265C10.3442 19.102 10.3245 19.0807 10.3 19.0803C10.2745 19.0798 10.2542 19.1004 10.2538 19.1249C10.2533 19.1495 10.273 19.1698 10.2984 19.1703ZM10.1739 19.1681C10.1984 19.1685 10.2188 19.1489 10.2192 19.1243C10.2196 19.0998 10.2 19.0785 10.1755 19.0781C10.15 19.0776 10.1297 19.0982 10.1292 19.1227C10.1288 19.1473 10.1484 19.1676 10.1739 19.1681ZM10.4593 18.9993C10.6229 18.9958 10.6441 18.9253 10.6359 18.7964L10.608 18.3423L10.5343 18.3439L10.5615 18.8062C10.5672 18.8979 10.5686 18.9224 10.4659 18.9246M11.0045 18.978C11.0308 18.9765 11.0488 18.9564 11.0477 18.9364C11.0466 18.9174 11.0348 18.9016 11.0094 18.9031C10.905 18.9089 10.8966 18.8875 10.888 18.7988L10.8437 18.3323L10.7693 18.3365L10.8151 18.832C10.8249 18.9407 10.8584 18.9862 11.0045 18.978ZM11.0639 18.9774C11.2681 18.9545 11.3471 18.8679 11.4335 18.8143C11.4704 18.9145 11.5427 18.9237 11.6394 18.9129C11.6656 18.91 11.6825 18.8889 11.6802 18.869C11.6781 18.85 11.6654 18.835 11.6401 18.8378C11.557 18.8471 11.5186 18.8386 11.4899 18.787C11.5067 18.7814 11.5235 18.7768 11.5434 18.7746L11.5298 18.7102L11.5108 18.7123C11.4169 18.7229 11.3358 18.6204 11.1777 18.6381C11.147 18.6415 11.1151 18.6506 11.0837 18.6642L11.1058 18.7312C11.1376 18.7203 11.1562 18.7155 11.186 18.7122C11.2674 18.7031 11.3409 18.7223 11.3925 18.7585C11.3033 18.8362 11.1884 18.8885 11.0638 18.9024M11.3181 19.1145C11.3425 19.1118 11.3601 19.0897 11.3574 19.0653C11.3546 19.0409 11.3324 19.0223 11.308 19.0251C11.2827 19.0279 11.2652 19.0509 11.2679 19.0753C11.2707 19.0997 11.2928 19.1173 11.3181 19.1145ZM11.6979 18.9003C11.7848 18.8856 11.8288 18.8569 11.8454 18.8135C11.8672 18.8439 11.9058 18.865 11.9667 18.8547C11.9927 18.8503 12.0084 18.8283 12.005 18.8086C12.0018 18.7897 11.9883 18.7754 11.9632 18.7797C11.9086 18.789 11.8623 18.7719 11.844 18.68L11.7526 18.2281L11.6782 18.2407L11.7708 18.6943C11.7897 18.7842 11.7956 18.8081 11.6935 18.8254M12.011 18.8461C12.1713 18.8131 12.1794 18.74 12.1481 18.6146L12.0387 18.173L11.9666 18.1879L12.0767 18.6376C12.0988 18.7268 12.1046 18.7507 12.004 18.7714M12.6244 18.1044C12.6481 18.0978 12.6619 18.0731 12.6553 18.0495C12.6487 18.0259 12.6238 18.0111 12.6001 18.0178C12.5756 18.0246 12.562 18.0502 12.5686 18.0738C12.5753 18.0974 12.5999 18.1113 12.6244 18.1044ZM12.5045 18.1381C12.5282 18.1314 12.542 18.1068 12.5354 18.0832C12.5287 18.0595 12.5038 18.0448 12.4802 18.0514C12.4557 18.0583 12.4421 18.0838 12.4487 18.1075C12.4554 18.1311 12.48 18.145 12.5045 18.1381ZM12.9312 18.6188C12.9566 18.6117 12.9698 18.5882 12.9644 18.5689C12.9593 18.5505 12.9444 18.5377 12.9198 18.5446C12.8568 18.5623 12.8173 18.5592 12.7898 18.4782L12.6947 18.1933L12.6238 18.2132L12.6451 18.279C12.5273 18.3337 12.4498 18.4376 12.4761 18.5313C12.5029 18.6267 12.6351 18.6368 12.751 18.5722C12.7921 18.6343 12.8551 18.6402 12.9312 18.6188ZM12.5421 18.5005C12.53 18.4576 12.5715 18.3903 12.669 18.3506L12.7218 18.5086C12.6596 18.5393 12.5575 18.5557 12.5421 18.5005ZM12.9849 18.6008C13.0737 18.5709 13.1135 18.5469 13.1311 18.4882C13.1568 18.5217 13.1942 18.5302 13.3062 18.4924C13.3312 18.484 13.3432 18.4598 13.3368 18.4408C13.3307 18.4227 13.3151 18.4107 13.291 18.4188C13.1575 18.4639 13.1531 18.4366 13.1414 18.4022C13.1321 18.3746 13.1279 18.3252 13.1243 18.2918L13.0528 18.3016C13.075 18.4639 13.0843 18.4886 12.9697 18.5273M13.257 18.6904C13.2802 18.6825 13.2928 18.6572 13.2849 18.6339C13.2771 18.6107 13.2514 18.5972 13.2282 18.6051C13.2041 18.6132 13.1918 18.6394 13.1996 18.6627C13.2075 18.686 13.2328 18.6985 13.257 18.6904ZM13.139 18.7302C13.1622 18.7223 13.1748 18.697 13.1669 18.6737C13.1591 18.6505 13.1334 18.6371 13.1102 18.6449C13.0861 18.6531 13.0738 18.6793 13.0816 18.7025C13.0895 18.7258 13.1148 18.7383 13.139 18.7302ZM13.3635 18.474C13.4184 18.452 13.4482 18.4311 13.4608 18.3359C13.5251 18.3786 13.6044 18.3908 13.6601 18.3684C13.6972 18.3534 13.7241 18.323 13.7299 18.2765C13.7634 18.2964 13.8071 18.2954 13.851 18.2778C13.8754 18.2679 13.886 18.2431 13.8785 18.2245C13.8714 18.2068 13.8552 18.1957 13.8316 18.2052C13.7869 18.2232 13.757 18.2196 13.6813 18.1412C13.5993 18.0567 13.5526 18.0382 13.497 18.0606C13.4574 18.0766 13.4097 18.1262 13.3988 18.255C13.3906 18.3514 13.3905 18.3828 13.3441 18.4015M13.467 18.2589C13.4739 18.1738 13.4941 18.1412 13.5191 18.1301C13.5575 18.1137 13.601 18.1608 13.6416 18.2033C13.6823 18.2457 13.6705 18.2848 13.6317 18.3004C13.5946 18.3153 13.5308 18.3077 13.467 18.2589ZM13.9007 18.2523C14.0492 18.1835 14.0405 18.1105 13.9813 17.9956L13.7738 17.5907L13.707 17.6217L13.9171 18.0343C13.9589 18.1161 13.9701 18.138 13.8768 18.1812M14.3918 18.0144C14.4153 18.0025 14.4237 17.9769 14.4147 17.959C14.4061 17.942 14.389 17.9323 14.3663 17.9438C14.2729 17.9909 14.2566 17.9747 14.2132 17.8968L13.9858 17.4872L13.9193 17.5208L14.1598 17.9564C14.2122 18.0521 14.2611 18.0804 14.3918 18.0144ZM14.4413 17.9908C14.5187 17.9467 14.5798 17.8869 14.62 17.8232C14.695 17.8245 14.7827 17.7966 14.853 17.7566C14.8759 17.7436 14.8831 17.7176 14.8732 17.7002C14.8637 17.6836 14.8462 17.6748 14.824 17.6873C14.7711 17.7174 14.7125 17.7413 14.6576 17.7496C14.6855 17.6772 14.6866 17.6076 14.657 17.5554C14.6305 17.5088 14.5673 17.4841 14.4772 17.5353C14.3839 17.5883 14.3334 17.7018 14.3518 17.7342C14.3581 17.7452 14.3873 17.7726 14.402 17.7746C14.4557 17.7807 14.5048 17.7936 14.5472 17.8092C14.5132 17.8505 14.4676 17.89 14.4123 17.9215M14.411 17.7058C14.4246 17.6708 14.4662 17.6263 14.5017 17.606C14.5586 17.5737 14.5928 17.5877 14.6044 17.6083C14.6233 17.6415 14.6171 17.6931 14.5879 17.7484C14.5192 17.7268 14.4701 17.716 14.411 17.7058ZM14.8975 17.7266C15.0357 17.6391 15.0175 17.5678 14.9438 17.4616L14.6853 17.0873L14.623 17.1267L14.8852 17.5084C14.9374 17.5841 14.9513 17.6043 14.8645 17.6593M15.1995 17.5259L15.2605 17.4846L14.8812 16.9575L14.8202 16.9989M15.3993 16.6685C15.4187 16.6534 15.422 16.6253 15.4069 16.606C15.3917 16.5867 15.3631 16.5826 15.3438 16.5977C15.3238 16.6134 15.3209 16.6422 15.3361 16.6616C15.3512 16.6809 15.3793 16.6843 15.3993 16.6685ZM15.3014 16.7454C15.3207 16.7303 15.3241 16.7022 15.3089 16.6829C15.2938 16.6636 15.2651 16.6595 15.2458 16.6746C15.2258 16.6903 15.223 16.7191 15.2381 16.7384C15.2533 16.7577 15.2813 16.7611 15.3014 16.7454ZM15.8793 17.0269C15.9 17.0106 15.9033 16.9838 15.8909 16.9681C15.8791 16.9531 15.8604 16.9469 15.8404 16.9626C15.7889 17.003 15.7512 17.0153 15.6948 16.9509L15.4982 16.7239L15.4403 16.7693L15.4851 16.822C15.3971 16.9176 15.3651 17.0432 15.4252 17.1197C15.4864 17.1977 15.6124 17.1566 15.6949 17.0526C15.7565 17.0943 15.8171 17.0757 15.8793 17.0269ZM15.4744 17.0661C15.4469 17.031 15.4596 16.9529 15.5345 16.8791L15.6436 17.0049C15.5979 17.057 15.5098 17.1111 15.4744 17.0661ZM15.922 16.9898C15.9926 16.9282 16.0203 16.8908 16.0142 16.8298C16.0507 16.851 16.0885 16.8446 16.1776 16.7669C16.1975 16.7496 16.1993 16.7226 16.1862 16.7075C16.1736 16.6932 16.1546 16.688 16.1354 16.7047C16.0293 16.7973 16.0148 16.7738 15.9909 16.7464C15.9717 16.7245 15.949 16.6804 15.9329 16.651L15.8705 16.6873C15.953 16.8289 15.971 16.8481 15.8799 16.9276M16.2076 16.9687C16.2261 16.9525 16.2281 16.9243 16.2119 16.9058C16.1958 16.8873 16.167 16.8847 16.1485 16.9008C16.1293 16.9176 16.128 16.9465 16.1441 16.965C16.1602 16.9835 16.1885 16.9854 16.2076 16.9687ZM16.1138 17.0505C16.1323 17.0344 16.1342 17.0062 16.1181 16.9877C16.1019 16.9692 16.0731 16.9666 16.0546 16.9827C16.0354 16.9994 16.0341 17.0283 16.0502 17.0468C16.0664 17.0653 16.0946 17.0673 16.1138 17.0505ZM16.2214 16.729C16.2853 16.6669 16.3294 16.5936 16.3523 16.5219C16.4252 16.5043 16.5031 16.4552 16.5611 16.3989C16.58 16.3805 16.5804 16.3535 16.5664 16.3391C16.5531 16.3255 16.5339 16.3213 16.5156 16.3391C16.472 16.3815 16.4213 16.4194 16.3702 16.4411C16.379 16.3641 16.3626 16.2964 16.3208 16.2534C16.2834 16.2149 16.216 16.2069 16.1417 16.2791C16.0648 16.3539 16.0444 16.4764 16.0704 16.5031C16.0792 16.5122 16.1143 16.5314 16.1291 16.5296C16.1826 16.522 16.2334 16.5221 16.2783 16.5266C16.2558 16.5752 16.2216 16.6248 16.176 16.6692M16.1205 16.4607C16.1249 16.4235 16.1539 16.3699 16.1832 16.3414C16.2302 16.2958 16.2668 16.3008 16.2832 16.3178C16.3098 16.3451 16.3168 16.3967 16.3025 16.4575C16.2305 16.4539 16.1803 16.4558 16.1205 16.4607ZM16.6074 16.352C16.647 16.3081 16.6646 16.2763 16.6342 16.1852C16.7107 16.1954 16.7873 16.1715 16.8275 16.127C16.8543 16.0973 16.8652 16.0581 16.85 16.0138C16.8888 16.017 16.9277 15.9969 16.9593 15.9618C16.977 15.9423 16.9756 15.9153 16.9608 15.9019C16.9466 15.8891 16.9271 15.8863 16.9101 15.9052C16.8778 15.9409 16.8494 15.9508 16.747 15.9136C16.6362 15.8736 16.5862 15.8774 16.546 15.922C16.5174 15.9537 16.4963 16.0192 16.543 16.1397C16.5779 16.2299 16.5916 16.2582 16.5581 16.2953M16.606 16.1133C16.5749 16.0338 16.5787 15.9956 16.5963 15.9747C16.6237 15.9431 16.6834 15.9664 16.7386 15.9867C16.7937 16.0071 16.8003 16.0473 16.7722 16.0783C16.7455 16.108 16.6847 16.1292 16.606 16.1133ZM17.0053 15.9085C17.1315 15.7464 17.1247 15.6294 17.1467 15.5301C17.2441 15.5737 17.3013 15.5284 17.3611 15.4516C17.3773 15.4308 17.374 15.404 17.3582 15.3918C17.3431 15.38 17.3235 15.3786 17.3079 15.3987C17.2565 15.4647 17.2235 15.4862 17.1665 15.4707C17.1743 15.4548 17.1827 15.4395 17.195 15.4237L17.1395 15.3885L17.1277 15.4036C17.0697 15.4782 16.9397 15.4646 16.842 15.5901C16.823 15.6145 16.8072 15.6436 16.7949 15.6756L16.8584 15.7066C16.8728 15.6763 16.8823 15.6595 16.9008 15.6359C16.951 15.5713 17.0161 15.5321 17.0782 15.5205C17.0715 15.6386 17.0286 15.7573 16.9515 15.8563M17.2809 15.8224C17.296 15.8031 17.2925 15.775 17.2731 15.7599C17.2538 15.7448 17.225 15.7478 17.2099 15.7671C17.1943 15.7872 17.1985 15.8158 17.2178 15.8309C17.2372 15.846 17.2653 15.8425 17.2809 15.8224ZM17.3918 15.4021C17.4852 15.2678 17.4407 15.2091 17.3316 15.1399L16.948 14.8954L16.906 14.9559L17.2958 15.2058C17.3732 15.2552 17.3939 15.2685 17.3353 15.3528M17.5922 15.0999L17.6323 15.0381L17.0781 14.6997L17.038 14.7615" fill="white"/>
<mask id="mask0_92020_49" style="mask-type:luminance" maskUnits="userSpaceOnUse" x="5" y="5" width="10" height="11">
<path d="M5.9718 5.60962H14.8138V15.175H5.9718V5.60962Z" fill="white"/>
</mask>
<g mask="url(#mask0_92020_49)">
<mask id="mask1_92020_49" style="mask-type:luminance" maskUnits="userSpaceOnUse" x="5" y="5" width="10" height="11">
<path d="M5.9718 5.60962H14.8138V15.175H5.9718V5.60962Z" fill="white"/>
</mask>
<g mask="url(#mask1_92020_49)">
<path d="M10.3928 5.60962C10.4088 5.60964 10.4242 5.61602 10.4355 5.62736C10.4468 5.63869 10.4531 5.65406 10.4531 5.67007V14.4497L12.0339 6.02125C12.0376 5.99717 12.0541 5.977 12.077 5.9686C12.0999 5.9602 12.1255 5.9649 12.1439 5.98086C12.1623 5.99683 12.1705 6.02154 12.1655 6.04537L10.5871 14.4607L13.4669 7.02248C13.4753 7.00015 13.495 6.98403 13.5186 6.98025C13.5421 6.97647 13.5659 6.9856 13.5809 7.00418C13.5959 7.02276 13.5997 7.04794 13.591 7.07015L10.717 14.4935L14.3984 8.49893C14.4114 8.47726 14.4356 8.4649 14.4608 8.46709C14.4859 8.46928 14.5077 8.48564 14.5167 8.50922C14.5239 8.52848 14.5218 8.54997 14.5111 8.56749L10.8388 14.5469L14.777 10.1351C14.7828 10.1286 14.792 10.1262 14.8002 10.1293C14.8083 10.1324 14.8137 10.1401 14.8138 10.1488C14.813 10.2416 14.7782 10.3308 14.7159 10.3995L10.949 14.6196L14.7093 11.6535C14.7372 11.6313 14.7778 11.6359 14.8 11.6638C14.8222 11.6917 14.8176 11.7323 14.7897 11.7545L11.0439 14.7088L14.7188 12.7142C14.739 12.7009 14.7651 12.7001 14.7861 12.7121C14.8072 12.7242 14.8196 12.7471 14.8184 12.7713C14.8171 12.7955 14.8023 12.817 14.7801 12.8267L11.1212 14.8124L14.7295 13.5777C14.751 13.5696 14.7753 13.5739 14.7929 13.5888C14.8104 13.6038 14.8185 13.6271 14.8139 13.6497C14.8093 13.6723 14.7928 13.6907 14.7709 13.6976L11.1778 14.927L14.7398 14.3365C14.7621 14.3328 14.7846 14.3412 14.7989 14.3586C14.8133 14.376 14.8172 14.3998 14.8093 14.4209C14.8014 14.442 14.7828 14.4573 14.7606 14.461L11.2127 15.0491H14.7504C14.7734 15.0482 14.795 15.06 14.8068 15.0799C14.8186 15.0997 14.8186 15.1244 14.8068 15.1442C14.795 15.164 14.7734 15.1758 14.7504 15.175H6.03508C6.01205 15.1758 5.9904 15.164 5.97863 15.1442C5.96687 15.1244 5.96687 15.0997 5.97863 15.0799C5.9904 15.06 6.01205 15.0482 6.03508 15.0491H9.55933L6.02479 14.4632C6.00119 14.461 5.98076 14.4459 5.97189 14.4239C5.96302 14.4019 5.96722 14.3768 5.98275 14.3589C5.99828 14.341 6.02253 14.3334 6.04553 14.339L9.59413 14.9273L6.01475 13.7022C5.99275 13.6952 5.97626 13.6769 5.97168 13.6543C5.9671 13.6317 5.97515 13.6084 5.99271 13.5934C6.01026 13.5785 6.03455 13.5742 6.05614 13.5823L9.65096 14.8122L6.00526 12.8336C5.98241 12.8242 5.96694 12.8026 5.96545 12.7779C5.96396 12.7533 5.97672 12.73 5.99828 12.7179C6.01983 12.7059 6.04638 12.7073 6.06659 12.7214L9.72813 14.7088L5.99634 11.7651C5.96844 11.7429 5.96381 11.7023 5.98601 11.6744C6.00821 11.6465 6.04882 11.6418 6.07672 11.664L9.82322 14.6194L6.07093 10.4155C6.00815 10.3463 5.9729 10.2564 5.97182 10.1629V10.1484C5.97186 10.1421 5.9758 10.1365 5.98171 10.1342C5.98763 10.132 5.99431 10.1337 5.99851 10.1384L9.93334 14.5469L6.26923 8.58108C6.25852 8.56361 6.25641 8.54219 6.26353 8.52296C6.27251 8.49932 6.29422 8.48289 6.31941 8.48066C6.34461 8.47844 6.36886 8.49081 6.38185 8.51251L10.0553 14.4935L7.1851 7.0806C7.17639 7.05839 7.18026 7.03321 7.19522 7.01463C7.21019 6.99605 7.23397 6.98692 7.25753 6.9907C7.28108 6.99448 7.30081 7.0106 7.30921 7.03293L10.1852 14.4611L8.60785 6.05115C8.60232 6.02717 8.61041 6.00208 8.62891 5.98585C8.64741 5.96961 8.67334 5.96486 8.6964 5.97346C8.71946 5.98207 8.73593 6.00265 8.73927 6.02704L10.3191 14.4497V5.68365C10.319 5.66405 10.3268 5.64523 10.3406 5.63135C10.3544 5.61746 10.3732 5.60964 10.3928 5.60962Z" fill="white"/>
</g>
<mask id="mask2_92020_49" style="mask-type:luminance" maskUnits="userSpaceOnUse" x="5" y="5" width="10" height="11">
<path d="M5.9718 5.60962H14.8138V15.175H5.9718V5.60962Z" fill="white"/>
</mask>
<g mask="url(#mask2_92020_49)">
<path d="M10.0043 10.2521C10.0036 10.4094 10.0979 10.5515 10.243 10.6122C10.3881 10.6728 10.5554 10.64 10.6669 10.529C10.7783 10.418 10.8119 10.2508 10.7518 10.1054C10.6918 9.96006 10.55 9.86524 10.3928 9.86524C10.2899 9.86502 10.1912 9.90566 10.1184 9.97822C10.0455 10.0508 10.0045 10.1493 10.0043 10.2521Z" fill="white"/>
</g>
<mask id="mask3_92020_49" style="mask-type:luminance" maskUnits="userSpaceOnUse" x="5" y="5" width="10" height="11">
<path d="M5.9718 5.60962H14.8138V15.175H5.9718V5.60962Z" fill="white"/>
</mask>
<g mask="url(#mask3_92020_49)">
<path d="M12.9382 7.93085C12.9378 8.02847 12.9963 8.1167 13.0864 8.15433C13.1765 8.19196 13.2804 8.17157 13.3495 8.10267C13.4187 8.03378 13.4395 7.92999 13.4023 7.83976C13.365 7.74953 13.277 7.69068 13.1794 7.69067C13.1155 7.69053 13.0543 7.71575 13.009 7.7608C12.9638 7.80584 12.9383 7.86702 12.9382 7.93085Z" fill="white"/>
</g>
<mask id="mask4_92020_49" style="mask-type:luminance" maskUnits="userSpaceOnUse" x="5" y="5" width="10" height="11">
<path d="M5.9718 5.60962H14.8138V15.175H5.9718V5.60962Z" fill="white"/>
</mask>
<g mask="url(#mask4_92020_49)">
<path d="M6.96314 9.96545C6.96275 10.0549 7.01635 10.1358 7.09892 10.1704C7.18149 10.2049 7.27673 10.1862 7.34015 10.1231C7.40357 10.0599 7.42266 9.96476 7.3885 9.88204C7.35434 9.79932 7.27368 9.74536 7.18419 9.74536C7.06239 9.74514 6.96345 9.84365 6.96314 9.96545Z" fill="white"/>
</g>
<mask id="mask5_92020_49" style="mask-type:luminance" maskUnits="userSpaceOnUse" x="5" y="5" width="10" height="11">
<path d="M5.9718 5.60962H14.8138V15.175H5.9718V5.60962Z" fill="white"/>
</mask>
<g mask="url(#mask5_92020_49)">
<path d="M7.63306 13.7475C7.63273 13.8234 7.67822 13.8921 7.74826 13.9213C7.81831 13.9506 7.89911 13.9348 7.9529 13.8812C8.0067 13.8276 8.0229 13.7469 7.99392 13.6767C7.96494 13.6066 7.89651 13.5608 7.82059 13.5608C7.77096 13.5607 7.72332 13.5803 7.68815 13.6153C7.65298 13.6503 7.63316 13.6979 7.63306 13.7475Z" fill="white"/>
</g>
<mask id="mask6_92020_49" style="mask-type:luminance" maskUnits="userSpaceOnUse" x="5" y="5" width="10" height="11">
<path d="M5.9718 5.60962H14.8138V15.175H5.9718V5.60962Z" fill="white"/>
</mask>
<g mask="url(#mask6_92020_49)">
<path d="M13.8491 12.2801C13.8488 12.356 13.8943 12.4247 13.9644 12.454C14.0345 12.4833 14.1153 12.4674 14.1691 12.4138C14.223 12.3602 14.2391 12.2794 14.2101 12.2092C14.1811 12.139 14.1126 12.0932 14.0367 12.0933C13.987 12.0932 13.9394 12.1128 13.9042 12.1478C13.869 12.1829 13.8492 12.2304 13.8491 12.2801Z" fill="white"/>
</g>
</g>
</g>
<defs>
<clipPath id="clip0_92020_49">
<rect width="20.7847" height="21.0129" rx="10.3923" fill="white"/>
</clipPath>
</defs>
</svg>
